<svg xmlns="http://www.w3.org/2000/svg" viewBox="-24 -24 400 270" width="400" height="270" role="img" aria-labelledby="t">
<title id="t">FARAK</title>
<defs>
<clipPath id="a"><path d="M0 0h2v222h-2zM4 0h2v222h-2zM8 0h2v222h-2zM12 0h2v222h-2zM16 0h2v222h-2zM20 0h2v222h-2zM24 0h2v222h-2zM28 0h2v222h-2zM32 0h2v222h-2zM36 0h2v222h-2zM40 0h2v222h-2zM44 0h2v222h-2zM48 0h2v222h-2zM52 0h2v222h-2zM56 0h2v222h-2zM60 0h2v222h-2zM64 0h2v222h-2zM68 0h2v222h-2zM72 0h2v222h-2zM76 0h2v222h-2zM80 0h2v222h-2zM84 0h2v222h-2zM88 0h2v222h-2zM92 0h2v222h-2zM96 0h2v222h-2zM100 0h2v222h-2zM104 0h2v222h-2zM108 0h2v222h-2zM112 0h2v222h-2zM116 0h2v222h-2zM120 0h2v222h-2zM124 0h2v222h-2zM128 0h2v222h-2zM132 0h2v222h-2zM136 0h2v222h-2zM140 0h2v222h-2zM144 0h2v222h-2zM148 0h2v222h-2zM152 0h2v222h-2zM156 0h2v222h-2zM160 0h2v222h-2zM164 0h2v222h-2zM168 0h2v222h-2zM172 0h2v222h-2zM176 0h2v222h-2zM180 0h2v222h-2zM184 0h2v222h-2zM188 0h2v222h-2zM192 0h2v222h-2zM196 0h2v222h-2zM200 0h2v222h-2zM204 0h2v222h-2zM208 0h2v222h-2zM212 0h2v222h-2zM216 0h2v222h-2zM220 0h2v222h-2zM224 0h2v222h-2zM228 0h2v222h-2zM232 0h2v222h-2zM236 0h2v222h-2zM240 0h2v222h-2zM244 0h2v222h-2zM248 0h2v222h-2zM252 0h2v222h-2zM256 0h2v222h-2zM260 0h2v222h-2zM264 0h2v222h-2zM268 0h2v222h-2zM272 0h2v222h-2zM276 0h2v222h-2zM280 0h2v222h-2zM284 0h2v222h-2zM288 0h2v222h-2zM292 0h2v222h-2zM296 0h2v222h-2zM300 0h2v222h-2zM304 0h2v222h-2zM308 0h2v222h-2zM312 0h2v222h-2zM316 0h2v222h-2zM320 0h2v222h-2zM324 0h2v222h-2zM328 0h2v222h-2zM332 0h2v222h-2zM336 0h2v222h-2zM340 0h2v222h-2zM344 0h2v222h-2zM348 0h2v222h-2z"/></clipPath>
<clipPath id="b"><path d="M2 0h2v222h-2zM6 0h2v222h-2zM10 0h2v222h-2zM14 0h2v222h-2zM18 0h2v222h-2zM22 0h2v222h-2zM26 0h2v222h-2zM30 0h2v222h-2zM34 0h2v222h-2zM38 0h2v222h-2zM42 0h2v222h-2zM46 0h2v222h-2zM50 0h2v222h-2zM54 0h2v222h-2zM58 0h2v222h-2zM62 0h2v222h-2zM66 0h2v222h-2zM70 0h2v222h-2zM74 0h2v222h-2zM78 0h2v222h-2zM82 0h2v222h-2zM86 0h2v222h-2zM90 0h2v222h-2zM94 0h2v222h-2zM98 0h2v222h-2zM102 0h2v222h-2zM106 0h2v222h-2zM110 0h2v222h-2zM114 0h2v222h-2zM118 0h2v222h-2zM122 0h2v222h-2zM126 0h2v222h-2zM130 0h2v222h-2zM134 0h2v222h-2zM138 0h2v222h-2zM142 0h2v222h-2zM146 0h2v222h-2zM150 0h2v222h-2zM154 0h2v222h-2zM158 0h2v222h-2zM162 0h2v222h-2zM166 0h2v222h-2zM170 0h2v222h-2zM174 0h2v222h-2zM178 0h2v222h-2zM182 0h2v222h-2zM186 0h2v222h-2zM190 0h2v222h-2zM194 0h2v222h-2zM198 0h2v222h-2zM202 0h2v222h-2zM206 0h2v222h-2zM210 0h2v222h-2zM214 0h2v222h-2zM218 0h2v222h-2zM222 0h2v222h-2zM226 0h2v222h-2zM230 0h2v222h-2zM234 0h2v222h-2zM238 0h2v222h-2zM242 0h2v222h-2zM246 0h2v222h-2zM250 0h2v222h-2zM254 0h2v222h-2zM258 0h2v222h-2zM262 0h2v222h-2zM266 0h2v222h-2zM270 0h2v222h-2zM274 0h2v222h-2zM278 0h2v222h-2zM282 0h2v222h-2zM286 0h2v222h-2zM290 0h2v222h-2zM294 0h2v222h-2zM298 0h2v222h-2zM302 0h2v222h-2zM306 0h2v222h-2zM310 0h2v222h-2zM314 0h2v222h-2zM318 0h2v222h-2zM322 0h2v222h-2zM326 0h2v222h-2zM330 0h2v222h-2zM334 0h2v222h-2zM338 0h2v222h-2zM342 0h2v222h-2zM346 0h2v222h-2zM350 0h2v222h-2z"/></clipPath>
</defs>
<g clip-path="url(#a)"><path fill="#f3f1ec" transform="translate(9.35 186.3) scale(0.15000 -0.21000)" d="M34 0Q19 0 19 11Q19 20 32 23L55 27Q76 31 82.5 38Q89 45 89 66V654Q89 675 82.5 682Q76 689 55 693L32 697Q19 700 19 709Q19 720 34 720H356Q379 720 381 697L389 531Q391 514 376 514Q364 514 362 527L357 560Q349 612 329 641Q309 670 284 682.5Q259 695 236 695Q192 695 176 681Q160 667 160 638V402Q160 388 174 388H209Q253 388 263 435L274 485Q277 498 289 498Q301 498 301 481V256Q301 239 289 239Q277 239 274 252L263 301Q256 336 243.5 347Q231 358 208 358H174Q160 358 160 344V71Q160 50 166.5 41.5Q173 33 194 30L241 23Q252 21 252 12Q252 0 237 0ZM367 0Q352 0 352 10Q352 20 366 23L381 26Q401 30 411 45.5Q421 61 428 89L583 714Q585 724 589.5 727Q594 730 598 730Q603 730 607.5 727Q612 724 614 714L772 80Q779 52 788 41Q797 30 816 26L831 23Q845 20 845 10Q845 0 830 0H659Q645 0 645 11Q645 22 662 23L681 25Q698 27 702.5 36Q707 45 702 67L664 222Q658 248 631 248H526Q500 248 493 222L459 88Q444 31 489 25L504 23Q521 20 521 11Q521 0 507 0ZM523 278H633Q649 278 646 295L582 563H577L510 295Q507 278 523 278ZM1266.7 -9Q1179.7 -9 1155.7 105L1132.7 216Q1121.7 270 1108.2 298Q1094.7 326 1071.2 336Q1047.7 346 1006.7 346Q992.7 346 984.7 338.5Q976.7 331 976.7 320V70Q976.7 49 984.7 41.5Q992.7 34 1020.7 29L1057.7 23Q1068.7 21 1068.7 12Q1068.7 0 1053.7 0H850.7Q835.7 0 835.7 11Q835.7 20 848.7 23L871.7 27Q892.7 31 899.2 38Q905.7 45 905.7 66V654Q905.7 675 899.2 682Q892.7 689 871.7 693L848.7 697Q835.7 700 835.7 709Q835.7 720 850.7 720H1053.7Q1112.7 720 1158.7 697Q1204.7 674 1230.7 633.5Q1256.7 593 1256.7 540Q1256.7 477 1218.7 426.5Q1180.7 376 1122.7 355Q1115.7 353 1115.2 348.5Q1114.7 344 1121.7 341Q1153.7 326 1172.2 299Q1190.7 272 1200.7 227L1222.7 125Q1233.7 73 1248.7 51Q1263.7 29 1286.7 29Q1294.7 29 1301.2 31.5Q1307.7 34 1317.7 41Q1325.7 46 1332.7 43.5Q1339.7 41 1339.7 33Q1339.7 16 1317.7 3.5Q1295.7 -9 1266.7 -9ZM1043.7 371Q1111.7 371 1146.7 416.5Q1181.7 462 1181.7 538Q1181.7 612 1141.2 653.5Q1100.7 695 1029.7 695Q976.7 695 976.7 655V426Q976.7 371 1043.7 371ZM1276.3 0Q1261.3 0 1261.3 10Q1261.3 20 1275.3 23L1290.3 26Q1310.3 30 1320.3 45.5Q1330.3 61 1337.3 89L1492.3 714Q1494.3 724 1498.8 727Q1503.3 730 1507.3 730Q1512.3 730 1516.8 727Q1521.3 724 1523.3 714L1681.3 80Q1688.3 52 1697.3 41Q1706.3 30 1725.3 26L1740.3 23Q1754.3 20 1754.3 10Q1754.3 0 1739.3 0H1568.3Q1554.3 0 1554.3 11Q1554.3 22 1571.3 23L1590.3 25Q1607.3 27 1611.8 36Q1616.3 45 1611.3 67L1573.3 222Q1567.3 248 1540.3 248H1435.3Q1409.3 248 1402.3 222L1368.3 88Q1353.3 31 1398.3 25L1413.3 23Q1430.3 20 1430.3 11Q1430.3 0 1416.3 0ZM1432.3 278H1542.3Q1558.3 278 1555.3 295L1491.3 563H1486.3L1419.3 295Q1416.3 278 1432.3 278ZM1760 0Q1745 0 1745 11Q1745 20 1758 23L1781 27Q1802 31 1808.5 38Q1815 45 1815 66V654Q1815 675 1808.5 682Q1802 689 1781 693L1758 697Q1745 700 1745 709Q1745 720 1760 720H1943Q1958 720 1958 708Q1958 699 1947 697L1920 693Q1899 690 1892.5 682Q1886 674 1886 653V383Q1886 373 1892 371Q1898 369 1903 378L2067 635Q2100 686 2061 693L2038 697Q2025 700 2025 710Q2025 720 2039 720H2209Q2223 720 2223 709Q2223 698 2210 697L2191 695Q2160 692 2140 677Q2120 662 2095 623L1982 446Q1972 429 1981 413L2169 59Q2177 43 2185.5 36Q2194 29 2206 27L2230 23Q2242 22 2242 11Q2242 0 2228 0H2050Q2036 0 2036 11Q2036 21 2049 23L2066 25Q2105 30 2082 74L1938 348Q1934 356 1929 356.5Q1924 357 1919 349L1898 316Q1891 306 1888.5 297Q1886 288 1886 274V67Q1886 46 1892.5 38Q1899 30 1920 27L1947 23Q1958 21 1958 12Q1958 0 1943 0Z"/></g>
<g clip-path="url(#b)"><path fill="#b48cff" transform="translate(10.05 186.3) scale(0.15000 -0.21000)" d="M-22 0Q-36 0 -36 10Q-36 21 -16 24L4 27Q26 30 34.5 37.5Q43 45 47 66L183 654Q188 675 183 682Q178 689 158 693L138 697Q125 700 125 708Q125 720 143 720H465Q490 720 485 697L455 531Q452 514 439 514Q425 514 427 527L429 562Q434 631 407 663Q380 695 338 695Q295 695 275 681Q255 667 248 638L194 402Q191 388 205 388H242Q285 388 306 435L329 484Q332 490 335 493.5Q338 497 344 497Q349 497 353 492.5Q357 488 355 480L303 257Q298 240 287 240Q275 240 275 253V301Q275 336 266 347Q257 358 234 358H198Q183 358 180 344L116 71Q111 50 116 41.5Q121 33 141 30L194 23Q206 22 206 12Q206 0 189 0ZM306.7 0Q294.7 0 294.7 10Q294.7 19 310.7 23L326.7 26Q346.7 30 361.2 45.5Q375.7 61 388.7 89L687.7 714Q692.7 724 697.7 727Q702.7 730 706.7 730Q711.7 730 715.2 727Q718.7 724 718.7 714L729.7 80Q730.7 52 736.7 41.5Q742.7 31 761.7 26L774.7 23Q786.7 20 786.7 11Q786.7 0 769.7 0H604.7Q591.7 0 591.7 10Q591.7 21 611.7 23L631.7 25Q648.7 27 655.2 36Q661.7 45 661.7 67L659.7 222Q659.7 248 632.7 248H525.7Q499.7 248 486.7 222L421.7 88Q394.7 31 439.7 25L453.7 23Q468.7 21 468.7 11Q468.7 0 451.7 0ZM529.7 278H641.7Q658.7 278 658.7 295L656.7 568H651.7L520.7 295Q516.7 288 519.7 283Q522.7 278 529.7 278ZM1211.3 -9Q1169.3 -9 1142.8 21Q1116.3 51 1117.3 105L1118.3 216Q1119.3 270 1112.3 298Q1105.3 326 1086.3 336Q1067.3 346 1030.3 346Q1008.3 346 997.8 338Q987.3 330 983.3 313L925.3 70Q920.3 49 926.3 41Q932.3 33 957.3 29L1001.3 23Q1015.3 22 1015.3 12Q1015.3 0 999.3 0H787.3Q773.3 0 773.3 10Q773.3 21 793.3 24L813.3 27Q835.3 30 843.8 37.5Q852.3 45 856.3 66L992.3 654Q997.3 675 992.3 682Q987.3 689 967.3 693L947.3 697Q934.3 700 934.3 708Q934.3 720 952.3 720H1155.3Q1214.3 720 1253.3 699Q1292.3 678 1311.8 643Q1331.3 608 1331.3 566Q1331.3 513 1304.3 470Q1277.3 427 1233.8 397.5Q1190.3 368 1140.3 354Q1134.3 353 1133.8 348.5Q1133.3 344 1139.3 341Q1167.3 326 1177.3 299Q1187.3 272 1187.3 227V125Q1187.3 70 1199.3 49.5Q1211.3 29 1232.3 29Q1240.3 29 1246.3 31.5Q1252.3 34 1262.3 41Q1270.3 48 1276.8 45Q1283.3 42 1283.3 34Q1283.3 20 1262.3 5.5Q1241.3 -9 1211.3 -9ZM1065.3 371Q1115.3 371 1159.3 398Q1203.3 425 1230.8 471Q1258.3 517 1258.3 574Q1258.3 630 1230.8 662.5Q1203.3 695 1135.3 695Q1071.3 695 1061.3 655L1008.3 426Q995.3 371 1065.3 371ZM1211.3 0Q1199.3 0 1199.3 10Q1199.3 19 1215.3 23L1231.3 26Q1251.3 30 1265.8 45.5Q1280.3 61 1293.3 89L1592.3 714Q1597.3 724 1602.3 727Q1607.3 730 1611.3 730Q1616.3 730 1619.8 727Q1623.3 724 1623.3 714L1634.3 80Q1635.3 52 1641.3 41.5Q1647.3 31 1666.3 26L1679.3 23Q1691.3 20 1691.3 11Q1691.3 0 1674.3 0H1509.3Q1496.3 0 1496.3 10Q1496.3 21 1516.3 23L1536.3 25Q1553.3 27 1559.8 36Q1566.3 45 1566.3 67L1564.3 222Q1564.3 248 1537.3 248H1430.3Q1404.3 248 1391.3 222L1326.3 88Q1299.3 31 1344.3 25L1358.3 23Q1373.3 21 1373.3 11Q1373.3 0 1356.3 0ZM1434.3 278H1546.3Q1563.3 278 1563.3 295L1561.3 568H1556.3L1425.3 295Q1421.3 288 1424.3 283Q1427.3 278 1434.3 278ZM1692 0Q1678 0 1678 10Q1678 21 1698 24L1718 27Q1740 30 1748.5 37.5Q1757 45 1761 66L1897 654Q1902 675 1897 682Q1892 689 1872 693L1852 697Q1839 700 1839 708Q1839 720 1857 720H2036Q2051 720 2051 709Q2051 698 2035 696L2009 693Q1987 691 1979 682.5Q1971 674 1966 653L1903 381Q1901 373 1905.5 370Q1910 367 1916 374L2143 635Q2186 686 2150 693L2131 697Q2117 700 2117 709Q2117 720 2133 720H2304Q2318 720 2318 710Q2318 698 2302 697L2282 695Q2251 692 2228 677Q2205 662 2171 623L2014 444Q2002 428 2007 412L2114 59Q2119 43 2125.5 36Q2132 29 2143 27L2164 23Q2176 20 2176 12Q2176 0 2159 0H1992Q1978 0 1978 10Q1978 21 1994 23L2012 25Q2051 30 2039 74L1958 353Q1956 361 1950 362Q1944 363 1939 357L1901 314Q1891 303 1885 291Q1879 279 1875 264L1830 67Q1826 46 1830.5 38Q1835 30 1855 27L1879 23Q1890 22 1890 12Q1890 0 1872 0Z"/></g>
</svg>